<svg id="Layer_1" data-name="Layer 1" xmlns="http://www.w3.org/2000/svg" viewBox="0 0 384.39 110"><defs><style>.cls-1{fill:#231f20;}</style></defs><title>Bold Care_.ai_06.01.20</title><path class="cls-1" d="M17.12,105a3.18,3.18,0,0,1-3.18-3.18V70.61a3.18,3.18,0,0,1,6.36,0v31.21A3.18,3.18,0,0,1,17.12,105Z"/><path class="cls-1" d="M17.12,73.79a3.18,3.18,0,0,1,0-6.36,28,28,0,0,0,0-56.06,3.18,3.18,0,0,1,0-6.36,34.4,34.4,0,0,1,0,68.79Z"/><path class="cls-1" d="M17.12,42.58a3.18,3.18,0,0,1-3.18-3.18V8.18a3.18,3.18,0,1,1,6.36,0V39.39A3.18,3.18,0,0,1,17.12,42.58Z"/><path class="cls-1" d="M44.72,70.61a27.85,27.85,0,0,0-27.61-28,3.18,3.18,0,0,1,0-6.36,34.4,34.4,0,0,1,0,68.79,3.18,3.18,0,1,1,0-6.36,27.85,27.85,0,0,0,27.61-28"/><path class="cls-1" d="M119.32,66.06a11.5,11.5,0,0,0-8.77-11.61v-.54A11.41,11.41,0,0,0,118,42.85c0-7.36-5.67-12.48-15.18-12.48H79.16v49.2h23.55C112.84,79.56,119.32,74.23,119.32,66.06ZM86.18,36.43H101.3c5.33,0,9,2.7,9,7.49,0,4.59-3.31,7.49-9,7.49H86.18Zm15.39,37H86.18v-16h15.39c5.67,0,9.85,2.43,9.85,8C111.42,70.38,108,73.42,101.57,73.42Z"/><path class="cls-1" d="M158.05,62c0-10.83-7.15-18.32-17.85-18.32S122.36,51.22,122.36,62s7.15,18.18,17.85,18.18S158.05,72.81,158.05,62ZM129.58,62c0-7.49,4.14-12.17,10.56-12.17,6.82,0,10.7,4.88,10.7,12.1,0,7.62-4.14,12.17-10.7,12.17S129.58,69.33,129.58,62Z"/><rect class="cls-1" x="161.56" y="30.36" width="7.02" height="49.2"/><path class="cls-1" d="M204.48,30.36V51.22h-.53c-1.87-4.35-6.22-7.49-12.57-7.49-9.29,0-15.64,7.08-15.64,18.52,0,11,6.08,18,15.57,18,5.75,0,10.7-2.61,12.63-6.89h.53v6.22h7V30.36Zm-.06,33.69c0,5.82-4.48,10.16-11,10.16-6.28,0-10.43-4.14-10.43-12,0-7.55,3.74-12.43,10.56-12.43,6.22,0,10.9,3.94,10.9,10.36Z"/><path class="cls-1" d="M272.26,63.31h-7.69c-1.4,6.22-6.75,10.29-14.91,10.29-9.89,0-16.31-7-16.31-18.38s6.35-18.38,16.44-18.38c7.49,0,13.17,3.88,14.77,10.09h7.69c-1.6-10.16-10.36-16.71-22.46-16.71-14.57,0-24.26,10.09-24.26,25s9.63,25,24.26,25C261.77,80.23,270.86,73.61,272.26,63.31Z"/><path class="cls-1" d="M307.12,73.61V55.23c0-7.22-4.34-11.5-14.44-11.5-9.16,0-15,4.81-14.77,12h6.68c-.13-3.88,2.94-6.48,7.82-6.48s7.69,1.6,7.69,6.55V57.9l-10.29.74c-8.42.53-14,4.08-14,11.23,0,6.35,4.68,10.36,11.7,10.36,5.55,0,10.56-2.67,12.37-6.62h.14v5.95h7.07V73.61Zm-17.24,1c-4.08,0-6.89-1.74-6.89-5.35,0-3.28,2.27-5.48,8-5.95l9.16-.67v2.27C300.11,70.6,296,74.61,289.88,74.61Z"/><path class="cls-1" d="M335.63,49.69V44.4H318.32a4.18,4.18,0,0,0-4.18,4.18v31h7V49.69Z"/><path class="cls-1" d="M369.85,68.8h-7c-.87,3.41-4.48,5.82-9.56,5.82-6.42,0-10.7-3.94-10.56-11.1h26.6a22.88,22.88,0,0,0,.33-3.94c0-9.49-6.15-15.84-16.51-15.84S335.63,50.95,335.63,62s7.15,18.18,17.58,18.18C362.1,80.23,368.65,75.61,369.85,68.8ZM353,49.34c6,0,9.56,3.34,9.56,9.16H342.78C343,53,347.13,49.34,353,49.34Z"/></svg>